<?xml version="1.0" encoding="UTF-8"?>
<svg xmlns="http://www.w3.org/2000/svg" viewBox="0 0 1350 1350">
  <defs>
    <style>
      .cls-1 {
        fill: #202e4d;
      }

      .cls-2 {
        fill: #f1f2f2;
        stroke: #231f20;
        stroke-miterlimit: 10;
        stroke-width: 8px;
      }
    </style>
  </defs>
  <g id="Layer_2" data-name="Layer 2">
    <rect class="cls-1" width="1350" height="1350"/>
  </g>
  <g id="Layer_1" data-name="Layer 1">
    <path class="cls-2" d="M1214.83,804.95c0,80.57-60.31,147.06-138.25,156.77-6.47,.81-13.06,1.23-19.75,1.23H302.67c-2.76,0-5.51-.07-8.24-.2-88.68-4.3-159.26-77.56-159.26-167.3s74.99-167.5,167.5-167.5c7.04,0,13.97,.43,20.78,1.28,6.04-134.77,117.22-242.17,253.48-242.17,97.69,0,182.49,55.21,224.89,136.12,26.7-36.46,69.83-60.14,118.48-60.14,81.04,0,146.75,65.7,146.75,146.75,0,12.87-1.66,25.36-4.77,37.26,84.73,2.87,152.54,72.47,152.54,157.9Z"/>
  </g>
</svg>