<?xml version="1.0" encoding="UTF-8"?>
<svg xmlns="http://www.w3.org/2000/svg" viewBox="0 0 1024 1024">
  <defs>
    <style>
      .cls-1 {
        fill: #4699d4;
      }

      .cls-2, .cls-3 {
        fill: #fff;
        stroke: #231f20;
        stroke-miterlimit: 10;
        stroke-width: 10px;
      }

      .cls-3 {
        stroke-linecap: round;
      }
    </style>
  </defs>
  <g id="Layer_2" data-name="Layer 2">
    <rect class="cls-1" width="1024" height="1024"/>
  </g>
  <g id="Layer_1" data-name="Layer 1">
    <g>
      <path class="cls-2" d="M417.27,191.43c-21.46-21.27-76.54-9.88-111.31,16.83-36.23,27.82-71.97,72.19-95.56,104.4-4.79,6.55-11.8,10.89-19.59,12.21-9.3,1.57-22.88,5.69-35.34,16.33-21.8,18.61-31.09,46.87-30.36,69.13,1.72,52.74,58.41,89.66,95.25,113.65,40.66,26.48,54.73,22.91,99.76,56.64,23.38,17.51,38.88,29.12,55.33,50.37,24.9,32.17,25.36,52.07,54.7,90.42,3.88,5.07,17.04,21.94,36.16,39.37,73.18,66.72,163.02,77.31,204.26,81.62,4.09,.43,6.97,.61,11.35,1.03,13.48,1.28,210.18,.05,216.69-97.4,1.25-18.74-1.23-28.21-9.71-42.71-13.27-22.69-59.88-45.05-154.35-74.86-8.68-2.74-16.23-8.58-21.12-16.55-15.92-25.96-52.85-101.51-118.91-314.41-.54-1.75-1.48-3.37-2.77-4.62-7.63-7.37-36.76-27.06-87.73,35.85-.22,.28-.5,.55-.8,.81-2.47,2.16-5.91,2.87-9.01,1.96-.51-.15-1.05-.33-1.63-.56-38.03-14.93-55.18-46.94-55.18-46.94-24.15-45.07-1.17-73.78-20.13-92.57Z"/>
      <path class="cls-2" d="M611.65,351.67s-79.8,7.12-126.89-24.17"/>
      <path class="cls-2" d="M199.31,322.07s1.01,44.08,80.21,113.47c79.2,69.39,132.78,104.69,181.7,174.08,48.92,69.39,82.7,144.86,181.7,161.9,99,17.04,228.68-.78,248.62-11.97"/>
      <path class="cls-2" d="M297.94,214.68s115.35,119.19-14.99,223.85"/>
      <path class="cls-3" d="M574.05,420.54s25.87-16.22,54.3-18.14"/>
      <path class="cls-3" d="M592.72,468.97s27.51-14.48,54.45-10.97"/>
      <path class="cls-3" d="M611.65,520.77s19.77-19.28,54.07-13.96"/>
      <path class="cls-3" d="M628.35,564.4s29.47-17.03,56.4-10.68"/>
      <path class="cls-3" d="M713.44,611.9s-70.9,2.34-96.19,47.71c-4.82,8.65-13.74,13.86-23.32,14.02-26.84,.44-77.67-2-106.01-24.4"/>
    </g>
  </g>
</svg>