<?xml version="1.0" encoding="UTF-8"?>
<svg id="Layer_3" data-name="Layer 3" xmlns="http://www.w3.org/2000/svg" xmlns:xlink="http://www.w3.org/1999/xlink" viewBox="0 0 120 121.08">
  <defs>
    <style>
      .cls-1, .cls-2 {
        fill: #fff;
      }

      .cls-3 {
        fill: #bcbec0;
      }

      .cls-4 {
        fill: #231f20;
      }

      .cls-5 {
        fill: #414042;
      }

      .cls-2 {
        filter: url(#outer-glow-1);
        font-family: ArialRoundedMTBold, 'Arial Rounded MT Bold';
        font-size: 38.8px;
      }
    </style>
    <filter id="outer-glow-1" filterUnits="userSpaceOnUse">
      <feOffset dx="0" dy="0"/>
      <feGaussianBlur result="blur" stdDeviation="5"/>
      <feFlood flood-color="#fff" flood-opacity=".7"/>
      <feComposite in2="blur" operator="in"/>
      <feComposite in="SourceGraphic"/>
    </filter>
  </defs>
  <path class="cls-4" d="M117.63,97.93L29.87,119.9c-1.7,.43-3.46-.52-3.91-2.11l-14.9-51.96,93.93-23.51,14.9,51.96c.46,1.59-.55,3.23-2.26,3.65Z"/>
  <text class="cls-2" transform="translate(57.89 98.16) rotate(-14.05) scale(1.06 1) skewX(1.84)"><tspan x="0" y="0">?</tspan></text>
  <g>
    <path class="cls-4" d="M106.84,43.03L9.83,67.31c-.45,.11-.91-.14-1.03-.56l-2.71-9.45c-.12-.42,.15-.85,.59-.96l97-24.28c.45-.11,.91,.14,1.03,.56l2.71,9.45c.12,.42-.15,.85-.59,.96Z"/>
    <polygon class="cls-1" points="102.16 32.45 92.76 34.8 88.86 47.53 98.26 45.18 102.16 32.45"/>
    <polygon class="cls-1" points="83.39 37.15 74 39.5 70.1 52.23 79.49 49.88 83.39 37.15"/>
    <polygon class="cls-1" points="64.61 41.85 55.22 44.2 51.32 56.93 60.71 54.58 64.61 41.85"/>
    <polygon class="cls-1" points="45.89 46.53 36.5 48.88 32.6 61.62 41.99 59.26 45.89 46.53"/>
    <polygon class="cls-1" points="27.09 51.24 17.69 53.59 13.8 66.32 23.19 63.97 27.09 51.24"/>
  </g>
  <g>
    <path class="cls-4" d="M87.39,.11L.42,47.01c-.4,.22-.54,.7-.31,1.07l5.24,8.47c.23,.38,.75,.5,1.15,.29L93.47,9.94c.4-.22,.54-.7,.31-1.07L88.54,.39c-.23-.38-.75-.5-1.15-.29Z"/>
    <polygon class="cls-1" points="92.09 10.68 83.67 15.22 71.28 8.8 79.7 4.25 92.09 10.68"/>
    <polygon class="cls-1" points="75.27 19.75 66.85 24.3 54.45 17.87 62.88 13.33 75.27 19.75"/>
    <polygon class="cls-1" points="58.43 28.83 50.01 33.38 37.61 26.95 46.04 22.41 58.43 28.83"/>
    <polygon class="cls-1" points="41.65 37.89 33.22 42.43 20.83 36 29.25 31.46 41.65 37.89"/>
    <polygon class="cls-1" points="24.79 46.98 16.37 51.52 3.97 45.09 12.39 40.55 24.79 46.98"/>
  </g>
  <path class="cls-5" d="M6.66,46.85l5.09,17.74c.08,.28,.37,.45,.65,.38l16.61-4.16c.46-.12,.56-.73,.16-.99L7.47,46.24c-.42-.26-.95,.13-.81,.61Z"/>
  <ellipse class="cls-3" cx="13.21" cy="62.98" rx="1.22" ry="1.14"/>
  <ellipse class="cls-3" cx="25.7" cy="59.85" rx="1.22" ry="1.14"/>
  <ellipse class="cls-3" cx="9.42" cy="49.78" rx="1.22" ry="1.14"/>
</svg>