<?xml version="1.0" encoding="UTF-8"?>
<svg xmlns="http://www.w3.org/2000/svg" viewBox="0 0 1920 1080">
  <defs>
    <style>
      .cls-1 {
        fill: #1417d0;
      }

      .cls-2 {
        fill: #0e2c95;
      }

      .cls-3 {
        fill: #0a004a;
      }
    </style>
  </defs>
  <g id="Layer_3" data-name="Layer 3">
    <g>
      <rect class="cls-2" x=".5" y=".5" width="1919" height="1079"/>
      <path d="M1919,1V1079H1V1H1919m1-1H0V1080H1920V0h0Z"/>
    </g>
  </g>
  <g id="Layer_1" data-name="Layer 1">
    <g>
      <polygon class="cls-3" points="864.3 1079.5 1613.48 .5 1919.5 .5 1919.5 1079.5 864.3 1079.5"/>
      <path d="M1919,1V1079H865.25L1613.74,1h305.26m1-1h-306.78L863.34,1080H1920V0h0Z"/>
    </g>
  </g>
  <g id="Layer_2" data-name="Layer 2">
    <g>
      <polygon class="cls-1" points=".5 .5 1222.54 .5 .5 786.38 .5 .5"/>
      <path d="M1220.83,1L1,785.46V1H1220.83M1224.24,0H0V787.29l.5-.32L1223.46,.5,1224.24,0h0Z"/>
    </g>
  </g>
</svg>