<?xml version="1.0" encoding="UTF-8"?>
<svg id="Layer_1" data-name="Layer 1" xmlns="http://www.w3.org/2000/svg" viewBox="0 0 1920.5 1080">
  <defs>
    <style>
      .cls-1 {
        fill: #1417d0;
      }

      .cls-2 {
        fill: #0e2c95;
      }

      .cls-3 {
        fill: #0a004a;
      }
    </style>
  </defs>
  <g>
    <rect class="cls-2" x="1" y=".5" width="1919" height="1079"/>
    <path d="M1919.5,1V1079H1.5V1H1919.5m1-1H.5V1080H1920.5V0h0Z"/>
  </g>
  <g>
    <polygon class="cls-3" points="970.07 1079.5 1736.42 .5 1920 .5 1920 1079.5 970.07 1079.5"/>
    <path d="M1919.5,1V1079H971.04L1736.68,1h182.82m1-1h-184.34L969.1,1080h951.4V0h0Z"/>
  </g>
  <g>
    <polygon class="cls-1" points=".5 .5 1352.04 .5 .5 869.66 .5 .5"/>
    <path d="M1350.34,1L1,868.74V1H1350.34M1353.74,0H0V870.57l.5-.32L1353.74,0h0Z"/>
  </g>
</svg>